<svg width="30" height="32" viewBox="0 0 30 32" fill="none" xmlns="http://www.w3.org/2000/svg">
<path d="M22 16C22 19.3137 19.3137 22 16 22C12.6863 22 10 19.3137 10 16C10 12.6863 12.6863 10 16 10C19.3137 10 22 12.6863 22 16Z" fill="#1F2937"/>
<path d="M29.8614 23.9914C28.1018 27.0434 25.3842 29.4294 22.13 30.7791C18.8759 32.1289 15.2673 32.3669 11.8641 31.4562C8.46087 30.5455 5.45336 28.5371 3.3082 25.7426C1.16304 22.9481 0.000159854 19.5237 1.64655e-08 16.0007C-0.000159755 12.4778 1.16241 9.05328 3.30732 6.25856C5.45222 3.46384 8.45955 1.45515 11.8627 0.544182C15.2658 -0.366791 18.8744 -0.129121 22.1287 1.22032C25.3829 2.56975 28.1008 4.95551 29.8607 8.0074L24.6644 11.0038C22.9359 8.0127 19.703 6.00001 16 6.00001C10.4987 6.00001 6.03499 10.4422 6.0002 15.9353C6.00007 15.9569 6 15.9784 6 16C6 21.5229 10.4772 26 16 26C19.7033 26 22.9364 23.987 24.6648 20.9954L29.8614 23.9914Z" fill="#1F2937"/>
</svg>
