<svg width="24" height="14" viewBox="0 0 29 19" fill="none" xmlns="http://www.w3.org/2000/svg">
<path d="M24.0517 10H28.3789V9.03516C28.3789 6.91406 27.8633 5.01562 26.832 3.33984C25.959 1.99805 24.752 1.06055 23.2109 0.527344C22.2207 0.199219 21.4121 0.0351562 20.7852 0.0351562V3.97266C20.791 4.01367 21.0488 4.0957 21.5586 4.21875C23.1992 4.94531 24.0312 6.77344 24.0547 9.70312C24.0547 9.80333 24.0537 9.90229 24.0517 10Z" fill="black"/>
<path d="M20.1172 0H20.1523V3.9375H19.8008C18.5293 3.9375 17.498 4.42969 16.707 5.41406C16.584 5.8125 16.209 6.01172 15.582 6.01172H14.8438C14.3926 6.01172 13.9941 6 13.6484 5.97656C12.7578 5.97656 12.3125 5.80078 12.3125 5.44922C12.3125 5.20898 12.4414 4.81055 12.6992 4.25391C13.918 1.41797 16.3906 0 20.1172 0Z" fill="black"/>
<path d="M15.6797 14.7461C14.4609 17.582 11.9883 19 8.26172 19H8.22656V15.0625H8.57812C9.84961 15.0625 10.8809 14.5703 11.6719 13.5859C11.7949 13.1875 12.1699 12.9883 12.7969 12.9883H13.5352C13.9863 12.9883 14.3848 13 14.7305 13.0234C15.6211 13.0234 16.0664 13.1992 16.0664 13.5508C16.0664 13.791 15.9375 14.1895 15.6797 14.7461Z" fill="#059DFF"/>
<path d="M0 9V9.96484C0 12.0859 0.515625 13.9844 1.54688 15.6602C2.41992 17.002 3.62695 17.9395 5.16797 18.4727C6.1582 18.8008 6.9668 18.9648 7.59375 18.9648V15.0273C7.58789 14.9863 7.33008 14.9043 6.82031 14.7812C5.17969 14.0547 4.34766 12.2266 4.32422 9.29688C4.32422 9.19667 4.32521 9.09771 4.32718 9H0Z" fill="#059DFF"/>
<path d="M12.6992 14.7461C13.918 17.582 16.3906 19 20.1172 19H20.1523V15.0625H19.8008C18.5293 15.0625 17.498 14.5703 16.707 13.5859C16.584 13.1875 16.209 12.9883 15.582 12.9883H14.8438C14.3926 12.9883 13.9941 13 13.6484 13.0234C12.7578 13.0234 12.3125 13.1992 12.3125 13.5508C12.3125 13.791 12.4414 14.1895 12.6992 14.7461Z" fill="black"/>
<path d="M28.3789 9V9.96484C28.3789 12.0859 27.8633 13.9844 26.832 15.6602C25.959 17.002 24.752 17.9395 23.2109 18.4727C22.2207 18.8008 21.4121 18.9648 20.7852 18.9648V15.0273C20.791 14.9863 21.0488 14.9043 21.5586 14.7812C23.1992 14.0547 24.0312 12.2266 24.0547 9.29688C24.0547 9.19667 24.0537 9.09771 24.0517 9H28.3789Z" fill="black"/>
<path d="M4.32718 10H0V9.03516C0 6.91406 0.515625 5.01562 1.54688 3.33984C2.41992 1.99805 3.62695 1.06055 5.16797 0.527344C6.1582 0.199219 6.9668 0.0351562 7.59375 0.0351562V3.97266C7.58789 4.01367 7.33008 4.0957 6.82031 4.21875C5.17969 4.94531 4.34766 6.77344 4.32422 9.70312C4.32422 9.80333 4.32521 9.90229 4.32718 10Z" fill="#059DFF"/>
<path d="M8.26172 0H8.22656V3.9375H8.57812C9.84961 3.9375 10.8809 4.42969 11.6719 5.41406C11.7949 5.8125 12.1699 6.01172 12.7969 6.01172H13.5352C13.9863 6.01172 14.3848 6 14.7305 5.97656C15.6211 5.97656 16.0664 5.80078 16.0664 5.44922C16.0664 5.20898 15.9375 4.81055 15.6797 4.25391C14.4609 1.41797 11.9883 0 8.26172 0Z" fill="#059DFF"/>
</svg>
